<svg xmlns="http://www.w3.org/2000/svg" viewBox="0 0 1200 240" fill="none" role="img" aria-label="DAES — Decentralized Autonomous Economic System">
  <defs>
    <linearGradient id="bgGrad" x1="0" y1="0" x2="1" y2="1">
      <stop offset="0%" stop-color="#fafbfd"/>
      <stop offset="100%" stop-color="#eef2f8"/>
    </linearGradient>
    <linearGradient id="accGrad" x1="0" y1="0" x2="1" y2="1">
      <stop offset="0%"  stop-color="#0ea5e9"/>
      <stop offset="55%" stop-color="#7c3aed"/>
      <stop offset="100%" stop-color="#db2777"/>
    </linearGradient>
    <radialGradient id="glow" cx="50%" cy="50%" r="50%">
      <stop offset="0%" stop-color="#0ea5e9" stop-opacity="0.28"/>
      <stop offset="100%" stop-color="#0ea5e9" stop-opacity="0"/>
    </radialGradient>
    <pattern id="dots" x="0" y="0" width="24" height="24" patternUnits="userSpaceOnUse">
      <circle cx="1" cy="1" r="1" fill="#cbd5e1" opacity="0.55"/>
    </pattern>
  </defs>

  <rect width="1200" height="240" rx="16" fill="url(#bgGrad)"/>
  <rect width="1200" height="240" rx="16" fill="url(#dots)"/>

  <circle cx="150" cy="120" r="180" fill="url(#glow)"/>

  <g transform="translate(60,60)">
    <path d="M60 0 L120 60 L60 120 L0 60 Z"    stroke="url(#accGrad)" stroke-width="3" fill="none" stroke-linejoin="round"/>
    <path d="M60 26 L94 60 L60 94 L26 60 Z"    stroke="url(#accGrad)" stroke-width="2" fill="rgba(14,165,233,0.08)" stroke-linejoin="round"/>
    <line x1="60" y1="26" x2="60" y2="8"   stroke="url(#accGrad)" stroke-width="2" stroke-linecap="round"/>
    <line x1="94" y1="60" x2="112" y2="60" stroke="url(#accGrad)" stroke-width="2" stroke-linecap="round"/>
    <line x1="60" y1="94" x2="60" y2="112" stroke="url(#accGrad)" stroke-width="2" stroke-linecap="round"/>
    <line x1="26" y1="60" x2="8"  y2="60"  stroke="url(#accGrad)" stroke-width="2" stroke-linecap="round"/>
    <circle cx="60"  cy="4"   r="4" fill="#0f172a"/>
    <circle cx="116" cy="60"  r="4" fill="#0f172a"/>
    <circle cx="60"  cy="116" r="4" fill="#0f172a"/>
    <circle cx="4"   cy="60"  r="4" fill="#0f172a"/>
    <circle cx="60"  cy="60"  r="6" fill="url(#accGrad)"/>
  </g>

  <g font-family="ui-sans-serif, system-ui, -apple-system, 'Segoe UI', Roboto, sans-serif">
    <text x="220" y="116" font-size="56" font-weight="700" fill="#0f172a" letter-spacing="-1.5">DAES</text>
    <text x="222" y="148" font-size="15" font-weight="500" fill="#0284c7" letter-spacing="6" font-family="ui-monospace, SFMono-Regular, Menlo, monospace">DECENTRALIZED  AUTONOMOUS  ECONOMIC  SYSTEM</text>
    <text x="222" y="180" font-size="13" font-weight="400" fill="#64748b" letter-spacing="0">2000-agent GraphRAG swarm → MCP tool execution → 3-of-5 multi-sig bridge</text>
  </g>

  <g font-family="ui-monospace, SFMono-Regular, Menlo, monospace" font-size="11" fill="#64748b" letter-spacing="1.5">
    <g transform="translate(880,56)">
      <rect x="0"   y="0" width="90" height="26" rx="6" stroke="#e4e9f0" fill="#ffffff"/>
      <text x="45" y="17" text-anchor="middle" fill="#059669">4 LAYERS</text>

      <rect x="100" y="0" width="108" height="26" rx="6" stroke="#e4e9f0" fill="#ffffff"/>
      <text x="154" y="17" text-anchor="middle" fill="#0284c7">3-OF-5  SIG</text>

      <rect x="0"   y="34" width="90" height="26" rx="6" stroke="#e4e9f0" fill="#ffffff"/>
      <text x="45" y="51" text-anchor="middle" fill="#d97706">24H  TIMELOCK</text>

      <rect x="100" y="34" width="108" height="26" rx="6" stroke="#e4e9f0" fill="#ffffff"/>
      <text x="154" y="51" text-anchor="middle" fill="#0f172a">BASE  +  OP</text>

      <rect x="0"   y="68" width="218" height="26" rx="6" stroke="#e4e9f0" fill="#ffffff"/>
      <text x="109" y="85" text-anchor="middle" fill="#64748b">DOCKER  COMPOSE  ·  AKASH  SDL</text>

      <rect x="0"   y="102" width="218" height="26" rx="6" stroke="#e4e9f0" fill="#ffffff"/>
      <text x="109" y="119" text-anchor="middle" fill="#64748b">8-HOUR  DEPLOY  TARGET</text>
    </g>
  </g>
</svg>
