<svg xmlns="http://www.w3.org/2000/svg" viewBox="0 0 1200 240" fill="none" role="img" aria-label="DAES — Decentralized Autonomous Economic System">
  <defs>
    <linearGradient id="bgGrad" x1="0" y1="0" x2="1" y2="1">
      <stop offset="0%" stop-color="#0b0d10"/>
      <stop offset="100%" stop-color="#12161b"/>
    </linearGradient>
    <linearGradient id="accGrad" x1="0" y1="0" x2="1" y2="1">
      <stop offset="0%" stop-color="#7dd3fc"/>
      <stop offset="100%" stop-color="#38bdf8"/>
    </linearGradient>
    <radialGradient id="glow" cx="50%" cy="50%" r="50%">
      <stop offset="0%" stop-color="#38bdf8" stop-opacity="0.25"/>
      <stop offset="100%" stop-color="#38bdf8" stop-opacity="0"/>
    </radialGradient>
  </defs>

  <rect width="1200" height="240" rx="16" fill="url(#bgGrad)"/>

  <g stroke="#1f262e" stroke-width="1" opacity="0.6">
    <line x1="0"    y1="60"  x2="1200" y2="60" />
    <line x1="0"    y1="120" x2="1200" y2="120"/>
    <line x1="0"    y1="180" x2="1200" y2="180"/>
    <line x1="120"  y1="0"   x2="120"  y2="240"/>
    <line x1="240"  y1="0"   x2="240"  y2="240"/>
    <line x1="360"  y1="0"   x2="360"  y2="240"/>
    <line x1="480"  y1="0"   x2="480"  y2="240"/>
    <line x1="600"  y1="0"   x2="600"  y2="240"/>
    <line x1="720"  y1="0"   x2="720"  y2="240"/>
    <line x1="840"  y1="0"   x2="840"  y2="240"/>
    <line x1="960"  y1="0"   x2="960"  y2="240"/>
    <line x1="1080" y1="0"   x2="1080" y2="240"/>
  </g>

  <circle cx="150" cy="120" r="180" fill="url(#glow)"/>

  <g transform="translate(60,60)">
    <path d="M60 0 L120 60 L60 120 L0 60 Z" stroke="url(#accGrad)" stroke-width="3" fill="none" stroke-linejoin="round"/>
    <path d="M60 26 L94 60 L60 94 L26 60 Z" stroke="url(#accGrad)" stroke-width="2" fill="#7dd3fc" fill-opacity="0.08" stroke-linejoin="round"/>
    <line x1="60" y1="26" x2="60" y2="8"   stroke="url(#accGrad)" stroke-width="2" stroke-linecap="round"/>
    <line x1="94" y1="60" x2="112" y2="60" stroke="url(#accGrad)" stroke-width="2" stroke-linecap="round"/>
    <line x1="60" y1="94" x2="60" y2="112" stroke="url(#accGrad)" stroke-width="2" stroke-linecap="round"/>
    <line x1="26" y1="60" x2="8"  y2="60"  stroke="url(#accGrad)" stroke-width="2" stroke-linecap="round"/>
    <circle cx="60"  cy="4"   r="4" fill="#e6edf3"/>
    <circle cx="116" cy="60"  r="4" fill="#e6edf3"/>
    <circle cx="60"  cy="116" r="4" fill="#e6edf3"/>
    <circle cx="4"   cy="60"  r="4" fill="#e6edf3"/>
    <circle cx="60"  cy="60"  r="6" fill="url(#accGrad)"/>
  </g>

  <g font-family="ui-monospace, SFMono-Regular, Menlo, Monaco, Consolas, 'Courier New', monospace">
    <text x="220" y="116" font-size="56" font-weight="700" fill="#e6edf3" letter-spacing="3">DAES</text>
    <text x="222" y="148" font-size="15" font-weight="500" fill="#7dd3fc" letter-spacing="7">DECENTRALIZED  AUTONOMOUS  ECONOMIC  SYSTEM</text>
    <text x="222" y="180" font-size="13" font-weight="400" fill="#9aa4af" letter-spacing="0.5">1000-agent GraphRAG swarm → MCP tool execution → 3-of-5 multi-sig bridge</text>
  </g>

  <g font-family="ui-monospace, SFMono-Regular, Menlo, Monaco, Consolas, 'Courier New', monospace" font-size="11" fill="#9aa4af" letter-spacing="1.5">
    <g transform="translate(880,56)">
      <rect x="0"   y="0" width="90" height="26" rx="4" stroke="#1f262e" fill="#12161b"/>
      <text x="45" y="17" text-anchor="middle" fill="#4ade80">4 LAYERS</text>

      <rect x="100" y="0" width="108" height="26" rx="4" stroke="#1f262e" fill="#12161b"/>
      <text x="154" y="17" text-anchor="middle" fill="#7dd3fc">3-OF-5  SIG</text>

      <rect x="0"   y="34" width="90" height="26" rx="4" stroke="#1f262e" fill="#12161b"/>
      <text x="45" y="51" text-anchor="middle" fill="#fbbf24">24H  TIMELOCK</text>

      <rect x="100" y="34" width="108" height="26" rx="4" stroke="#1f262e" fill="#12161b"/>
      <text x="154" y="51" text-anchor="middle" fill="#e6edf3">BASE  +  OP</text>

      <rect x="0"   y="68" width="218" height="26" rx="4" stroke="#1f262e" fill="#12161b"/>
      <text x="109" y="85" text-anchor="middle" fill="#9aa4af">DOCKER  COMPOSE  ·  AKASH  SDL</text>

      <rect x="0"   y="102" width="218" height="26" rx="4" stroke="#1f262e" fill="#12161b"/>
      <text x="109" y="119" text-anchor="middle" fill="#9aa4af">8-HOUR  DEPLOY  TARGET</text>
    </g>
  </g>
</svg>
